<svg width="106" height="106" viewBox="0 0 106 106" fill="none" xmlns="http://www.w3.org/2000/svg">
<path d="M53 65.4219C70.1509 65.4219 84.0547 51.5181 84.0547 34.3672C84.0547 17.2163 70.1509 3.3125 53 3.3125C35.8491 3.3125 21.9453 17.2163 21.9453 34.3672C21.9453 44.1767 26.5838 52.8176 33.6867 58.5089L28.1562 65.4219H53ZM56.1055 56.1055H49.8945V49.8945H56.1055V56.1055ZM53 12.6289C59.8509 12.6289 65.4219 18.1999 65.4219 25.0508C65.4219 30.0972 62.4073 34.6038 57.7431 36.5325C56.7636 36.9389 56.1055 38.0306 56.1055 39.2529V43.6836H49.8945V39.2529C49.8945 35.4893 52.0448 32.1685 55.3715 30.7949C57.7037 29.8303 59.2109 27.5741 59.2109 25.0508C59.2109 21.6269 56.4239 18.8398 53 18.8398C49.5761 18.8398 46.7891 21.6269 46.7891 25.0508H40.5781C40.5781 18.1999 46.1491 12.6289 53 12.6289Z" fill="#C9F31D"/>
<path d="M11.9484 95.7745L6.41797 102.688H31.2617C41.052 102.688 49.6778 98.0658 55.3697 90.9869C48.131 86.5581 42.5286 79.7466 39.6467 71.6328H15.234L25.2752 59.0836C21.3778 54.7594 18.7227 49.6035 17.201 44.0896C7.155 49.2327 0 59.5714 0 71.6328C0 81.4424 4.84557 90.0833 11.9484 95.7745Z" fill="#C9F31D"/>
<path d="M90.1666 32.4099C90.2008 33.0623 90.2656 33.7063 90.2656 34.3672C90.2656 54.9167 73.5495 71.6328 53 71.6328H46.3054C51.1017 82.5914 62.011 90.2656 74.7383 90.2656H99.582L94.0516 83.3526C101.154 77.6614 106 69.0205 106 59.2109C106 47.7054 99.4638 37.7755 90.1666 32.4099Z" fill="#C9F31D"/>
</svg>
