<svg width="108" height="108" viewBox="0 0 108 108" fill="none" xmlns="http://www.w3.org/2000/svg">
<path d="M54 4.50001C44.2098 4.50001 34.6395 7.40313 26.4993 12.8423C18.3591 18.2814 12.0145 26.0122 8.26799 35.0572C4.52145 44.1021 3.54118 54.0549 5.45115 63.657C7.36112 73.259 12.0755 82.0791 18.9982 89.0018C25.9209 95.9245 34.741 100.639 44.3431 102.549C53.9451 104.459 63.8979 103.479 72.9429 99.732C81.9878 95.9855 89.7186 89.641 95.1578 81.5007C100.597 73.3605 103.5 63.7902 103.5 54C103.504 47.4986 102.226 41.0602 99.7393 35.053C97.2529 29.0458 93.6069 23.5875 89.0097 18.9903C84.4125 14.3931 78.9543 10.7471 72.9471 8.26074C66.9398 5.77439 60.5015 4.49646 54 4.50001ZM60.345 73.08L57.195 76.275C53.8175 79.6525 49.2366 81.55 44.46 81.55C39.6835 81.55 35.1026 79.6525 31.725 76.275C28.3475 72.8975 26.45 68.3166 26.45 63.54C26.45 58.7635 28.3475 54.1825 31.725 50.805L34.92 47.655C35.7809 46.9178 36.8882 46.5326 38.0208 46.5763C39.1533 46.6201 40.2276 47.0896 41.0291 47.891C41.8305 48.6924 42.3 49.7667 42.3437 50.8993C42.3875 52.0318 42.0022 53.1392 41.265 54L38.07 57.195C36.3813 58.8838 35.4325 61.1742 35.4325 63.5625C35.4325 65.9508 36.3813 68.2412 38.07 69.93C39.7588 71.6188 42.0492 72.5675 44.4375 72.5675C46.8258 72.5675 49.1163 71.6188 50.805 69.93L54 66.735C54.8609 65.9978 55.9682 65.6126 57.1008 65.6563C58.2333 65.7001 59.3076 66.1695 60.1091 66.971C60.9105 67.7724 61.38 68.8467 61.4237 69.9793C61.4675 71.1118 61.0822 72.2192 60.345 73.08ZM61.965 52.425L52.425 61.965C51.5777 62.8124 50.4284 63.2884 49.23 63.2884C48.0317 63.2884 46.8824 62.8124 46.035 61.965C45.1877 61.1176 44.7116 59.9684 44.7116 58.77C44.7116 57.5717 45.1877 56.4224 46.035 55.575L55.575 46.035C56.4224 45.1876 57.5717 44.7116 58.77 44.7116C59.9684 44.7116 61.1177 45.1876 61.965 46.035C62.8124 46.8824 63.2884 48.0317 63.2884 49.23C63.2884 50.4284 62.8124 51.5776 61.965 52.425ZM76.275 57.195L73.08 60.345C72.2192 61.0822 71.1118 61.4675 69.9793 61.4237C68.8467 61.38 67.7724 60.9105 66.971 60.109C66.1696 59.3076 65.7001 58.2333 65.6563 57.1007C65.6126 55.9682 65.9978 54.8609 66.735 54L69.93 50.805C71.6188 49.1162 72.5675 46.8258 72.5675 44.4375C72.5675 42.0492 71.6188 39.7588 69.93 38.07C68.2413 36.3812 65.9508 35.4325 63.5625 35.4325C61.1742 35.4325 58.8838 36.3812 57.195 38.07L54 41.265C53.1392 42.0022 52.0318 42.3875 50.8993 42.3437C49.7667 42.3 48.6924 41.8305 47.891 41.029C47.0896 40.2276 46.6201 39.1533 46.5763 38.0207C46.5326 36.8882 46.9178 35.7809 47.655 34.92L50.805 31.725C54.1826 28.3475 58.7635 26.45 63.54 26.45C68.3166 26.45 72.8975 28.3475 76.275 31.725C79.6526 35.1025 81.55 39.6835 81.55 44.46C81.55 49.2366 79.6526 53.8175 76.275 57.195Z" fill="#C9F31D"/>
</svg>
