<svg width="107" height="106" viewBox="0 0 107 106" fill="none" xmlns="http://www.w3.org/2000/svg">
<path d="M78.9963 13.1033C78.6539 13.4354 78.4667 13.8806 78.4667 14.3452V20.7724L87.3833 11.939V4.79639L78.9963 13.1033Z" fill="#C9F31D"/>
<path d="M41.5392 64.8489C42.2151 65.5149 43.385 65.5149 44.0608 64.8489L97.5608 11.8489C98.2563 11.1599 98.2563 10.0398 97.5608 9.35083C97.2131 9.00633 96.7566 8.83496 96.3 8.83496C95.8435 8.83496 95.387 9.00633 95.0392 9.35083L41.5392 62.3508C40.8437 63.0398 40.8437 64.1599 41.5392 64.8489Z" fill="#C9F31D"/>
<path d="M45.5357 53.3956C41.9155 52.4593 37.9458 53.4186 35.2333 56.1039C31.0621 60.2379 31.0621 66.9618 35.2333 71.0958C39.4081 75.2263 46.1955 75.2245 50.3667 71.0958C53.0863 68.4017 54.0511 64.4708 53.097 60.8916L46.5807 67.347C45.5713 68.3469 44.2267 68.8999 42.7982 68.8999C41.3698 68.8999 40.0252 68.3487 39.0158 67.347C36.9293 65.28 36.9293 61.9198 39.0158 59.8528L45.5357 53.3956Z" fill="#C9F31D"/>
<path d="M3.64871 61.8333H14.3701C14.7856 55.1924 17.5141 48.6698 22.6162 43.6083C27.6845 38.5981 34.2775 35.8403 41.0167 35.4198V24.8499C31.524 25.2809 22.1793 29.0669 15.0656 36.1247C8.07138 43.0448 4.08741 52.1201 3.64871 61.8333Z" fill="#C9F31D"/>
<path d="M44.5833 35.4374C49.5713 35.7377 54.4951 37.3242 58.8215 40.2339L66.4577 32.669C59.9878 27.7965 52.3337 25.1801 44.5833 24.8462V35.4374Z" fill="#C9F31D"/>
<path d="M86.0316 28.2664H92.5194C92.9884 28.2664 93.4396 28.0827 93.757 27.7576L102.158 19.4331H94.9483L86.0316 28.2664Z" fill="#C9F31D"/>
<path d="M66.3757 47.7387C69.3146 52.0211 70.9178 56.8954 71.2228 61.8332H81.9174C81.5804 54.1535 78.9428 46.5692 74.028 40.158L66.3739 47.7405L66.3757 47.7387Z" fill="#C9F31D"/>
<path d="M62.9838 83.5914C57.871 88.6476 51.2851 91.3507 44.5833 91.7623V102.383C54.3881 101.949 63.5509 98.0021 70.5344 91.075C77.657 84.0278 81.4769 74.7705 81.9139 65.3647H71.2424C70.8197 72.041 68.0395 78.5723 62.9838 83.5897V83.5914Z" fill="#C9F31D"/>
<path d="M14.3701 65.3665H3.64871C4.08741 75.0796 8.07138 84.1567 15.0638 91.075C22.0491 98.0039 31.2119 101.951 41.0167 102.385V91.764C34.3131 91.3524 27.7308 88.6494 22.6198 83.5967C17.5159 78.5317 14.7874 72.0091 14.3719 65.3682L14.3701 65.3665Z" fill="#C9F31D"/>
<path d="M44.5833 88.2342C50.372 87.8279 56.0448 85.4623 60.4621 81.0933C64.8295 76.7579 67.2566 71.1311 67.6722 65.3664H65.9833C64.9972 65.3664 64.2 64.5767 64.2 63.5998C64.2 62.6228 64.9972 61.8331 65.9833 61.8331H67.6561C67.3708 57.8016 66.1082 53.8213 63.8148 50.2773L55.8915 58.1266C57.8834 62.8048 57.1719 68.2337 54.0457 72.2423L57.9334 76.0936C58.6307 76.7844 58.6307 77.9009 57.9334 78.5917C57.5856 78.9362 57.1291 79.1093 56.6726 79.1093C56.216 79.1093 55.7595 78.9362 55.4117 78.5917L51.5419 74.758C48.9793 76.7296 45.8941 77.7278 42.8018 77.7278C39.7095 77.7278 36.6243 76.7314 34.0617 74.758L30.1918 78.5917C29.8441 78.9362 29.3876 79.1093 28.931 79.1093C28.4745 79.1093 28.018 78.9362 27.6702 78.5917C26.9729 77.9009 26.9729 76.7844 27.6702 76.0936L31.54 72.26C27.5596 67.1826 27.5596 60.0205 31.54 54.9431L27.6702 51.1094C26.9729 50.4187 26.9729 49.3021 27.6702 48.6114C28.3675 47.9206 29.4946 47.9206 30.1918 48.6114L34.0795 52.4627C38.1241 49.3728 43.6061 48.6644 48.3337 50.6271L56.2624 42.7725C52.6815 40.5006 48.6583 39.2516 44.5851 38.9707V40.6349C44.5851 41.6118 43.788 42.4015 42.8018 42.4015C41.8156 42.4015 41.0185 41.6118 41.0185 40.6349V38.9565C35.1994 39.3717 29.5177 41.7779 25.1397 46.1062C20.733 50.4805 18.3469 56.0985 17.9368 61.8331H19.6185C20.6046 61.8331 21.4018 62.6228 21.4018 63.5998C21.4018 64.5767 20.6046 65.3664 19.6185 65.3664H17.9368C18.3469 71.101 20.7348 76.7208 25.1432 81.0968C29.5588 85.4623 35.2298 87.8279 41.0185 88.2342V86.5664C41.0185 85.5895 41.8156 84.7998 42.8018 84.7998C43.788 84.7998 44.5851 85.5895 44.5851 86.5664L44.5833 88.2342Z" fill="#C9F31D"/>
</svg>
